<svg width="27" height="27" viewBox="0 0 27 27" fill="none" xmlns="http://www.w3.org/2000/svg">
<path d="M11.8594 18.1719H14.3438V14.3906H18.1562V11.9062H14.3438V8.10938H11.8594V11.9062H8.07812V14.3906H11.8594V18.1719ZM13.0953 26.25C12.7347 26.25 12.3812 26.1797 12.035 26.0391C11.6888 25.8984 11.3646 25.6979 11.0625 25.4375L0.78125 15.1562C0.49625 14.876 0.294792 14.5642 0.176875 14.2206C0.0589584 13.8771 0 13.524 0 13.1613C0 12.7948 0.0589584 12.4371 0.176875 12.0881C0.294792 11.7394 0.49625 11.4288 0.78125 11.1562L11.0603 0.814688C11.343 0.531979 11.6618 0.325521 12.0166 0.195312C12.3716 0.0651042 12.7309 0 13.0947 0C13.4586 0 13.8099 0.0651042 14.1484 0.195312C14.487 0.325521 14.7917 0.53125 15.0625 0.8125L25.4844 11.1562C25.7656 11.4271 25.9635 11.7377 26.0781 12.0881C26.1927 12.4383 26.25 12.7967 26.25 13.1631C26.25 13.5296 26.1927 13.8831 26.0781 14.2238C25.9635 14.5642 25.7649 14.8759 25.4822 15.1591L15.0625 25.4375C14.7825 25.7125 14.4744 25.9167 14.1381 26.05C13.8017 26.1833 13.4541 26.25 13.0953 26.25ZM13.0938 23.4062L23.4062 13.1562L13.0938 2.875L2.8125 13.1562L13.0938 23.4062Z" fill="#B0D0F3"/>
</svg>
