<svg width="81" height="81" viewBox="0 0 81 81" fill="none" xmlns="http://www.w3.org/2000/svg">
<path d="M72.6385 80.5208L45.0125 52.8823C42.9667 54.3865 40.5896 55.5785 37.8812 56.4583C35.1729 57.3382 32.2215 57.7781 29.0271 57.7781C20.8993 57.7781 14.0295 54.9701 8.41771 49.3542C2.8059 43.7382 0 36.9094 0 28.8677C0 20.826 2.80799 14.0045 8.42396 8.40312C14.0399 2.80104 20.8917 0 28.9792 0C36.9743 0 43.7729 2.8059 49.375 8.41771C54.9764 14.0295 57.7771 20.8531 57.7771 28.8885C57.7771 32.1066 57.3431 35.0233 56.475 37.6385C55.6069 40.2545 54.3628 42.6851 52.7427 44.9302L80.5552 72.6385L72.6385 80.5208ZM28.9146 46.7365C33.9556 46.7365 38.1861 45.0292 41.6062 41.6146C45.0257 38.2 46.7354 33.9722 46.7354 28.9313C46.7354 23.891 45.0257 19.6493 41.6062 16.2063C38.1861 12.7632 33.9556 11.0417 28.9146 11.0417C23.8278 11.0417 19.5771 12.7632 16.1625 16.2063C12.7486 19.6493 11.0417 23.891 11.0417 28.9313C11.0417 33.9722 12.7486 38.2 16.1625 41.6146C19.5771 45.0292 23.8278 46.7365 28.9146 46.7365Z" fill="#717272"/>
</svg>
