<svg width="24" height="24" viewBox="0 0 24 24" fill="none" xmlns="http://www.w3.org/2000/svg">
<path d="M3.16656 23.8541C2.28469 23.8541 1.53646 23.5468 0.921875 22.9322C0.307292 22.3176 0 21.5694 0 20.6875V15.4947H3.16656V20.6875H20.6666V3.1875H3.16656V8.36969H0V3.1875C0 2.3 0.307292 1.54688 0.921875 0.928125C1.53646 0.309375 2.28469 0 3.16656 0H20.6666C21.5541 0 22.3072 0.309375 22.9259 0.928125C23.5447 1.54688 23.8541 2.3 23.8541 3.1875V20.6875C23.8541 21.5694 23.5447 22.3176 22.9259 22.9322C22.3072 23.5468 21.5541 23.8541 20.6666 23.8541H3.16656ZM10.3906 18.9584L8.10406 16.6616L11.2291 13.5156H0V10.3491H11.2291L8.10406 7.20312L10.3906 4.91656L17.3906 11.9428L10.3906 18.9584Z" fill="#B0D0F3"/>
</svg>
